<svg width="1200" height="400" viewBox="0 0 1200 400" fill="none" xmlns="http://www.w3.org/2000/svg">
<path d="M190.96 283L136 115H176.32L224.08 263.8H203.92L253.84 115H289.84L337.84 263.8H318.4L367.36 115H404.56L349.6 283H307.84L265.36 152.44H276.4L232.72 283H190.96Z" fill="url(#paint0_linear_3_4)"/>
<path d="M425.734 283V153.88H463.174V283H425.734Z" fill="url(#paint1_linear_3_4)"/>
<path d="M576.402 151.96C586.642 151.96 595.762 154.04 603.762 158.2C611.922 162.2 618.322 168.44 622.962 176.92C627.602 185.24 629.922 195.96 629.922 209.08V283H592.482V214.84C592.482 204.44 590.162 196.76 585.522 191.8C581.042 186.84 574.642 184.36 566.322 184.36C560.402 184.36 555.042 185.64 550.242 188.2C545.602 190.6 541.922 194.36 539.202 199.48C536.642 204.6 535.362 211.16 535.362 219.16V283H497.922V153.88H533.682V189.64L526.962 178.84C531.602 170.2 538.242 163.56 546.882 158.92C555.522 154.28 565.362 151.96 576.402 151.96Z" fill="url(#paint2_linear_3_4)"/>
<path d="M716.659 284.92C701.459 284.92 689.619 281.08 681.139 273.4C672.659 265.56 668.419 253.96 668.419 238.6V125.32H705.859V238.12C705.859 243.56 707.299 247.8 710.179 250.84C713.059 253.72 716.979 255.16 721.939 255.16C727.859 255.16 732.899 253.56 737.059 250.36L747.139 276.76C743.299 279.48 738.659 281.56 733.219 283C727.939 284.28 722.419 284.92 716.659 284.92ZM668.419 186.52V156.76H738.019V185.56L668.419 186.52Z" fill="url(#paint3_linear_3_4)"/>
<path d="M768.156 283V153.88H803.916V190.36L768.156 210.5C771.996 201.38 808.876 163.8 817.356 159.16C825.836 154.36 836.156 151.96 848.316 151.96V186.52C846.716 186.36 845.276 186.28 843.996 186.28C842.716 186.12 841.356 186.04 839.916 186.04C829.676 186.04 821.356 189 814.956 194.92C808.716 200.68 805.596 209.72 805.596 222.04V283H768.156Z" fill="url(#paint4_linear_3_4)"/>
<path d="M870.812 283V153.88H908.253V283H870.812Z" fill="url(#paint5_linear_3_4)"/>
<path d="M1005.4 284.92C991.48 284.92 979.08 282.12 968.2 276.52C957.32 270.76 948.76 262.84 942.52 252.76C936.44 242.68 933.4 231.24 933.4 218.44C933.4 205.48 936.44 194.04 942.52 184.12C948.76 174.04 957.32 166.2 968.2 160.6C979.08 154.84 991.48 151.96 1005.4 151.96C1019 151.96 1030.84 154.84 1040.92 160.6C1051 166.2 1058.44 174.28 1063.24 184.84L1034.2 200.44C1030.84 194.36 1026.6 189.88 1021.48 187C1016.52 184.12 1011.08 182.68 1005.16 182.68C998.76 182.68 993 184.12 987.88 187C982.76 189.88 978.68 193.96 975.64 199.24C972.76 204.52 971.32 210.92 971.32 218.44C971.32 225.96 972.76 232.36 975.64 237.64C978.68 242.92 982.76 247 987.88 249.88C993 252.76 998.76 254.2 1005.16 254.2C1011.08 254.2 1016.52 252.84 1021.48 250.12C1026.6 247.24 1030.84 242.68 1034.2 236.44L1063.24 252.28C1058.44 262.68 1051 270.76 1040.92 276.52C1030.84 282.12 1019 284.92 1005.4 284.92Z" fill="url(#paint6_linear_3_4)"/>
<defs>
<linearGradient id="paint0_linear_3_4" x1="135.72" y1="200" x2="1338.22" y2="200" gradientUnits="userSpaceOnUse">
<stop stop-color="#D9D9D9"/>
<stop offset="1" stop-color="#D9D9D9" stop-opacity="0"/>
</linearGradient>
<linearGradient id="paint1_linear_3_4" x1="135.72" y1="200" x2="1338.22" y2="200" gradientUnits="userSpaceOnUse">
<stop stop-color="#D9D9D9"/>
<stop offset="1" stop-color="#D9D9D9" stop-opacity="0"/>
</linearGradient>
<linearGradient id="paint2_linear_3_4" x1="135.72" y1="200" x2="1338.22" y2="200" gradientUnits="userSpaceOnUse">
<stop stop-color="#D9D9D9"/>
<stop offset="1" stop-color="#D9D9D9" stop-opacity="0"/>
</linearGradient>
<linearGradient id="paint3_linear_3_4" x1="135.72" y1="200" x2="1338.22" y2="200" gradientUnits="userSpaceOnUse">
<stop stop-color="#D9D9D9"/>
<stop offset="1" stop-color="#D9D9D9" stop-opacity="0"/>
</linearGradient>
<linearGradient id="paint4_linear_3_4" x1="135.72" y1="200" x2="1338.22" y2="200" gradientUnits="userSpaceOnUse">
<stop stop-color="#D9D9D9"/>
<stop offset="1" stop-color="#D9D9D9" stop-opacity="0"/>
</linearGradient>
<linearGradient id="paint5_linear_3_4" x1="135.72" y1="200" x2="1338.22" y2="200" gradientUnits="userSpaceOnUse">
<stop stop-color="#D9D9D9"/>
<stop offset="1" stop-color="#D9D9D9" stop-opacity="0"/>
</linearGradient>
<linearGradient id="paint6_linear_3_4" x1="135.72" y1="200" x2="1338.22" y2="200" gradientUnits="userSpaceOnUse">
<stop stop-color="#D9D9D9"/>
<stop offset="1" stop-color="#D9D9D9" stop-opacity="0"/>
</linearGradient>
</defs>
</svg>
